<svg width="168" height="181" viewBox="0 0 168 181" fill="none" xmlns="http://www.w3.org/2000/svg">
<path d="M138.987 138.261C138.652 138.453 138.381 138.74 138.208 139.086C138.035 139.431 137.968 139.821 138.014 140.205L140.98 172.091C141.169 173.64 142.996 174.361 144.189 173.358L149.767 168.667L152.573 173.537C154.187 176.338 157.427 176.632 160.222 175.015C163.017 173.398 164.383 170.439 162.769 167.639L159.973 162.786L166.709 160.33C168.171 159.796 168.461 157.851 167.218 156.912L141.142 138.395C140.835 138.164 140.468 138.028 140.084 138.004C139.701 137.98 139.32 138.069 138.987 138.261ZM142.471 144.32L161.969 157.873L154.233 160.694L154.269 160.75L159.37 169.605C159.931 170.577 159.231 171.048 158.26 171.61C157.289 172.171 156.532 172.544 155.972 171.571L150.87 162.717L150.83 162.639L144.436 168.017L142.471 144.32Z" fill="#4B5563"/>
<path d="M75.728 60.608H113.616C120.613 60.608 126.672 61.8027 131.792 64.192C136.912 66.5813 141.093 69.8667 144.336 74.048C147.579 78.144 149.968 82.9653 151.504 88.512C153.125 94.0587 153.936 99.9893 153.936 106.304C153.936 112.619 153.125 118.549 151.504 124.096C149.968 129.643 147.579 134.507 144.336 138.688C141.093 142.784 136.912 146.027 131.792 148.416C126.672 150.805 120.613 152 113.616 152H75.728V60.608ZM91.728 138.944H107.472C113.701 138.944 118.779 138.133 122.704 136.512C126.715 134.805 129.829 132.501 132.048 129.6C134.352 126.613 135.888 123.157 136.656 119.232C137.509 115.221 137.936 110.912 137.936 106.304C137.936 101.696 137.509 97.4293 136.656 93.504C135.888 89.4933 134.352 86.0373 132.048 83.136C129.829 80.1493 126.715 77.8453 122.704 76.224C118.779 74.5173 113.701 73.664 107.472 73.664H91.728V138.944Z" fill="#1E3A8A"/>
<path d="M32.728 35.608H70.616C77.6133 35.608 83.672 36.8027 88.792 39.192C93.912 41.5813 98.0933 44.8667 101.336 49.048C104.579 53.144 106.968 57.9653 108.504 63.512C110.125 69.0587 110.936 74.9893 110.936 81.304C110.936 87.6187 110.125 93.5493 108.504 99.096C106.968 104.643 104.579 109.507 101.336 113.688C98.0933 117.784 93.912 121.027 88.792 123.416C83.672 125.805 77.6133 127 70.616 127H32.728V35.608ZM48.728 113.944H64.472C70.7013 113.944 75.7787 113.133 79.704 111.512C83.7147 109.805 86.8293 107.501 89.048 104.6C91.352 101.613 92.888 98.1573 93.656 94.232C94.5093 90.2213 94.936 85.912 94.936 81.304C94.936 76.696 94.5093 72.4293 93.656 68.504C92.888 64.4933 91.352 61.0373 89.048 58.136C86.8293 55.1493 83.7147 52.8453 79.704 51.224C75.7787 49.5173 70.7013 48.664 64.472 48.664H48.728V113.944Z" fill="#1E3A8A" fill-opacity="0.8"/>
</svg>
