<svg width="190" height="200" viewBox="0 0 190 200" fill="none" xmlns="http://www.w3.org/2000/svg">
<path d="M160.987 153.261C160.652 153.453 160.381 153.74 160.208 154.086C160.035 154.431 159.968 154.821 160.014 155.205L162.98 187.091C163.169 188.64 164.996 189.361 166.189 188.358L171.767 183.667L174.573 188.537C176.187 191.338 179.427 191.632 182.222 190.015C185.017 188.398 186.383 185.439 184.769 182.639L181.973 177.786L188.709 175.33C190.171 174.796 190.461 172.851 189.218 171.912L163.142 153.395C162.835 153.164 162.468 153.028 162.084 153.004C161.701 152.98 161.32 153.069 160.987 153.261ZM164.471 159.32L183.969 172.873L176.233 175.694L176.269 175.75L181.37 184.605C181.931 185.577 181.231 186.048 180.26 186.61C179.289 187.171 178.532 187.544 177.972 186.571L172.87 177.717L172.83 177.639L166.436 183.017L164.471 159.32Z" fill="black"/>
<path d="M113.144 160.76H133.368C134.733 160.76 136.44 160.675 138.488 160.504C140.536 160.248 142.712 159.736 145.016 158.968C147.32 158.115 149.581 156.92 151.8 155.384C154.104 153.848 156.152 151.757 157.944 149.112C159.736 146.467 161.187 143.181 162.296 139.256C163.491 135.245 164.088 130.424 164.088 124.792C164.088 119.331 163.533 114.467 162.424 110.2C161.4 105.848 159.651 102.179 157.176 99.192C154.787 96.12 151.672 93.816 147.832 92.28C143.992 90.6587 139.256 89.848 133.624 89.848H113.144V160.76ZM100.984 79.608H132.344C146.424 79.608 157.261 83.192 164.856 90.36C172.451 97.528 176.248 108.451 176.248 123.128C176.248 130.808 175.395 137.635 173.688 143.608C171.981 149.496 169.336 154.488 165.752 158.584C162.168 162.595 157.603 165.667 152.056 167.8C146.509 169.933 139.939 171 132.344 171H100.984V79.608Z" fill="black"/>
<path d="M22.144 113.76H42.368C43.7333 113.76 45.44 113.675 47.488 113.504C49.536 113.248 51.712 112.736 54.016 111.968C56.32 111.115 58.5813 109.92 60.8 108.384C63.104 106.848 65.152 104.757 66.944 102.112C68.736 99.4667 70.1867 96.1813 71.296 92.256C72.4907 88.2453 73.088 83.424 73.088 77.792C73.088 72.3307 72.5333 67.4667 71.424 63.2C70.4 58.848 68.6507 55.1787 66.176 52.192C63.7867 49.12 60.672 46.816 56.832 45.28C52.992 43.6587 48.256 42.848 42.624 42.848H22.144V113.76ZM9.984 32.608H41.344C55.424 32.608 66.2613 36.192 73.856 43.36C81.4507 50.528 85.248 61.4507 85.248 76.128C85.248 83.808 84.3947 90.6347 82.688 96.608C80.9813 102.496 78.336 107.488 74.752 111.584C71.168 115.595 66.6027 118.667 61.056 120.8C55.5093 122.933 48.9387 124 41.344 124H9.984V32.608Z" fill="black"/>
</svg>
