<svg width="32" height="32" viewBox="0 0 32 32" fill="none" xmlns="http://www.w3.org/2000/svg">
<path d="M26.4737 24.4438C26.4099 24.4778 26.3583 24.5285 26.3253 24.5897C26.2924 24.6507 26.2796 24.7196 26.2884 24.7875L26.8533 30.4248C26.8893 30.6987 27.2373 30.8261 27.4646 30.6488L28.5271 29.8195L29.0615 30.6805C29.369 31.1757 29.9861 31.2276 30.5185 30.9418C31.0509 30.6559 31.3111 30.1327 31.0036 29.6377L30.4711 28.7797L31.7541 28.3455C32.0326 28.2511 32.0878 27.9072 31.8511 27.7412L26.8842 24.4675C26.8257 24.4267 26.7558 24.4026 26.6827 24.3984C26.6097 24.3941 26.5372 24.4099 26.4737 24.4438ZM27.1373 25.515L30.8512 27.9111L29.3777 28.4099L29.3846 28.4198L30.3562 29.9853C30.4631 30.1571 30.3297 30.2404 30.1448 30.3398C29.9598 30.439 29.8156 30.5049 29.709 30.3329L28.7372 28.7675L28.7295 28.7537L27.5116 29.7045L27.1373 25.515Z" fill="#4B5563"/>
<path d="M14.4244 10.7153H21.6411C22.9739 10.7153 24.128 10.9265 25.1032 11.349C26.0785 11.7714 26.8749 12.3522 27.4926 13.0915C28.1103 13.8156 28.5653 14.668 28.8579 15.6486C29.1667 16.6293 29.3211 17.6778 29.3211 18.7942C29.3211 19.9106 29.1667 20.959 28.8579 21.9397C28.5653 22.9204 28.1103 23.7803 27.4926 24.5195C26.8749 25.2437 26.0785 25.817 25.1032 26.2394C24.128 26.6618 22.9739 26.873 21.6411 26.873H14.4244V10.7153ZM17.472 24.5648H20.4709C21.6573 24.5648 22.6246 24.4214 23.3722 24.1348C24.1362 23.833 24.7293 23.4257 25.152 22.9128C25.5909 22.3847 25.8834 21.7737 26.0297 21.0798C26.1922 20.3707 26.2735 19.6089 26.2735 18.7942C26.2735 17.9795 26.1922 17.2252 26.0297 16.5312C25.8834 15.8221 25.5909 15.2111 25.152 14.6982C24.7293 14.1701 24.1362 13.7628 23.3722 13.4762C22.6246 13.1744 21.6573 13.0236 20.4709 13.0236H17.472V24.5648Z" fill="#1E3A8A"/>
<path d="M6.23392 6.29541H13.4507C14.7835 6.29541 15.9375 6.50663 16.9128 6.92905C17.888 7.35146 18.6845 7.93231 19.3021 8.67154C19.9198 9.3957 20.3749 10.2481 20.6674 11.2287C20.9762 12.2093 21.1307 13.2579 21.1307 14.3743C21.1307 15.4907 20.9762 16.5392 20.6674 17.5198C20.3749 18.5005 19.9198 19.3604 19.3021 20.0996C18.6845 20.8238 17.888 21.3971 16.9128 21.8195C15.9375 22.2418 14.7835 22.4531 13.4507 22.4531H6.23392V6.29541ZM9.28154 20.1449H12.2804C13.4669 20.1449 14.4341 20.0015 15.1817 19.7149C15.9457 19.4131 16.5389 19.0058 16.9615 18.4929C17.4004 17.9648 17.693 17.3539 17.8393 16.6599C18.0018 15.9508 18.0831 15.1889 18.0831 14.3743C18.0831 13.5596 18.0018 12.8053 17.8393 12.1113C17.693 11.4022 17.4004 10.7912 16.9615 10.2783C16.5389 9.75023 15.9457 9.34289 15.1817 9.05625C14.4341 8.75451 13.4669 8.60365 12.2804 8.60365H9.28154V20.1449Z" fill="#1E3A8A" fill-opacity="0.8"/>
</svg>
